<svg width="13" height="12" viewBox="0 0 13 12" fill="none" xmlns="http://www.w3.org/2000/svg">
<path d="M5.73837 11.763L0.229547 6.54813C0.14608 6.46912 0.0868185 6.38353 0.0517624 6.29134C0.0167063 6.19916 -0.000543405 6.1004 1.30418e-05 5.99505C1.30418e-05 5.8897 0.0175413 5.79093 0.0525974 5.69875C0.0876535 5.60657 0.146637 5.52097 0.229547 5.44196L5.73837 0.227132C5.89139 0.0822753 6.08281 0.00668685 6.31262 0.000365847C6.54243 -0.00595516 6.74053 0.0696333 6.90691 0.227132C7.07384 0.371988 7.16092 0.55319 7.16816 0.770738C7.17539 0.988286 7.09526 1.17581 6.92777 1.33331L2.83789 5.20492H12.1653C12.4018 5.20492 12.6002 5.28077 12.7604 5.43248C12.9207 5.58418 13.0006 5.7717 13 5.99505C13 6.21892 12.9201 6.4067 12.7604 6.55841C12.6007 6.71011 12.4024 6.7857 12.1653 6.78517H2.83789L6.92777 10.6568C7.0808 10.8016 7.16092 10.986 7.16816 11.2099C7.17539 11.4337 7.09526 11.6181 6.92777 11.763C6.77475 11.921 6.57999 12 6.3435 12C6.10701 12 5.9053 11.921 5.73837 11.763Z" fill="#E8EFFD"/>
</svg>
