<svg width="32" height="32" viewBox="0 0 32 32" fill="none" xmlns="http://www.w3.org/2000/svg">
<path d="M0 25.6V6.4C0 4.16 -1.19209e-07 3.04 0.436 2.184C0.82 1.43 1.43 0.82 2.184 0.436C3.04 -1.19209e-07 4.16 0 6.4 0H25.6C27.84 0 28.96 -1.19209e-07 29.814 0.436C30.568 0.82 31.18 1.43 31.564 2.184C32 3.038 32 4.158 32 6.394V25.608C32 27.844 32 28.962 31.564 29.816C31.1798 30.5688 30.5672 31.1806 29.814 31.564C28.96 32 27.842 32 25.606 32H6.394C4.158 32 3.038 32 2.184 31.564C1.43139 31.1805 0.819488 30.5686 0.436 29.816C-1.19209e-07 28.96 0 27.84 0 25.6Z" fill="#5A5DE0"/>
<path d="M8 16L14 22L24 10" stroke="white" stroke-width="4" stroke-linecap="round" stroke-linejoin="round"/>
</svg>
