<svg width="18" height="18" viewBox="0 0 18 18" fill="none" xmlns="http://www.w3.org/2000/svg">
<path d="M9 1C13.4183 1 17 4.58172 17 9C17 13.4183 13.4183 17 9 17C4.58172 17 1 13.4183 1 9C1 4.58172 4.58172 1 9 1Z" fill="#00F3AB" stroke="#00F3AB" stroke-width="0.5"/>
<mask id="path-2-outside-1_21_3755" maskUnits="userSpaceOnUse" x="4.5" y="5.24072" width="9" height="8" fill="black">
<rect fill="white" x="4.5" y="5.24072" width="9" height="8"/>
<path fill-rule="evenodd" clip-rule="evenodd" d="M12.3787 6.33705C12.2248 6.19847 11.9877 6.21089 11.8491 6.3648L7.64686 11.0319L6.15368 9.37353C6.0151 9.21962 5.77799 9.20719 5.62408 9.34577C5.47017 9.48436 5.45774 9.72147 5.59632 9.87538L7.36289 11.8374C7.46217 11.9476 7.61201 11.9853 7.7456 11.9468C7.81593 11.9294 7.882 11.8916 7.93412 11.8337L12.4065 6.86665C12.545 6.71274 12.5326 6.47563 12.3787 6.33705Z"/>
</mask>
<path fill-rule="evenodd" clip-rule="evenodd" d="M12.3787 6.33705C12.2248 6.19847 11.9877 6.21089 11.8491 6.3648L7.64686 11.0319L6.15368 9.37353C6.0151 9.21962 5.77799 9.20719 5.62408 9.34577C5.47017 9.48436 5.45774 9.72147 5.59632 9.87538L7.36289 11.8374C7.46217 11.9476 7.61201 11.9853 7.7456 11.9468C7.81593 11.9294 7.882 11.8916 7.93412 11.8337L12.4065 6.86665C12.545 6.71274 12.5326 6.47563 12.3787 6.33705Z" fill="#1A2835"/>
<path d="M11.8491 6.3648L11.4775 6.03024L11.4775 6.03024L11.8491 6.3648ZM12.3787 6.33705L12.7133 5.96547L12.3787 6.33705ZM7.64686 11.0319L7.27528 11.3664L7.64686 11.7791L8.01843 11.3664L7.64686 11.0319ZM6.15368 9.37353L5.78211 9.7081V9.7081L6.15368 9.37353ZM5.62408 9.34577L5.28951 8.9742L5.28951 8.9742L5.62408 9.34577ZM5.59632 9.87538L5.22475 10.2099L5.22475 10.2099L5.59632 9.87538ZM7.36289 11.8374L7.73447 11.5028L7.36289 11.8374ZM7.7456 11.9468L7.62584 11.4614L7.61651 11.4637L7.60728 11.4663L7.7456 11.9468ZM7.93412 11.8337L8.30569 12.1683L8.30569 12.1683L7.93412 11.8337ZM12.4065 6.86665L12.778 7.20122V7.20121L12.4065 6.86665ZM12.2207 6.69937C12.1745 6.75067 12.0954 6.75481 12.0441 6.70862L12.7133 5.96547C12.3541 5.64212 11.8009 5.67111 11.4775 6.03024L12.2207 6.69937ZM8.01843 11.3664L12.2207 6.69937L11.4775 6.03024L7.27528 10.6973L8.01843 11.3664ZM8.01843 10.6973L6.52525 9.03896L5.78211 9.7081L7.27528 11.3664L8.01843 10.6973ZM6.52525 9.03896C6.2019 8.67984 5.64864 8.65085 5.28951 8.9742L5.95864 9.71735C5.90734 9.76354 5.8283 9.7594 5.78211 9.7081L6.52525 9.03896ZM5.28951 8.9742C4.93039 9.29756 4.90139 9.85082 5.22475 10.2099L5.9679 9.54081C6.01409 9.59212 6.00995 9.67115 5.95864 9.71735L5.28951 8.9742ZM5.22475 10.2099L6.99132 12.1719L7.73447 11.5028L5.9679 9.54081L5.22475 10.2099ZM6.99132 12.1719C7.22346 12.4297 7.57348 12.5167 7.88392 12.4273L7.60728 11.4663C7.65054 11.4539 7.70088 11.4655 7.73447 11.5028L6.99132 12.1719ZM7.56255 11.4991C7.57946 11.4803 7.60209 11.4672 7.62584 11.4614L7.86537 12.4322C8.02977 12.3917 8.18454 12.3028 8.30569 12.1683L7.56255 11.4991ZM12.0349 6.53208L7.56255 11.4991L8.30569 12.1683L12.778 7.20122L12.0349 6.53208ZM12.0441 6.70862C11.9928 6.66242 11.9887 6.58339 12.0349 6.53208L12.778 7.20121C13.1014 6.84209 13.0724 6.28883 12.7133 5.96547L12.0441 6.70862Z" fill="#1A2835" mask="url(#path-2-outside-1_21_3755)"/>
</svg>
