<svg width="22" height="28" viewBox="0 0 22 28" fill="none" xmlns="http://www.w3.org/2000/svg">
<path fill-rule="evenodd" clip-rule="evenodd" d="M14.5557 0.80575C14.0401 0.289989 13.3408 0.000155753 12.6115 0H2.75C1.23122 0 0 1.23122 0 2.75V24.75C0 26.2688 1.23122 27.5 2.75 27.5H19.25C20.7688 27.5 22 26.2688 22 24.75V9.3885C21.9998 8.65921 21.71 7.95986 21.1943 7.44425L14.5557 0.80575ZM15.0449 9.52627H20.5578V24.6842C20.5578 25.4453 19.9407 26.0622 19.1796 26.0622H2.64092C1.87975 26.0622 1.2627 25.4453 1.2627 24.6842V2.6363C1.2627 1.87525 1.87975 1.2583 2.64092 1.2583H12.2885V6.77028C12.2885 8.29238 13.5226 9.52627 15.0449 9.52627Z" fill="#80CAFF"/>
<path fill-rule="evenodd" clip-rule="evenodd" d="M20.0166 8.2679L13.7051 1.97705V6.89615C13.7051 7.65375 14.3212 8.2679 15.0813 8.2679H20.0166Z" fill="#80CAFF"/>
</svg>
