<svg width="14" height="14" viewBox="0 0 14 14" fill="none" xmlns="http://www.w3.org/2000/svg">
<path d="M6.74286 0C9.2071 0 11.3853 1.33024 12.5616 3.33582L13.5837 3.08821C13.6955 3.0611 13.8136 3.09205 13.8967 3.1702C13.9797 3.24835 14.0162 3.36281 13.9933 3.47345L13.3347 6.65846C13.2845 6.90016 13.0961 7.09147 12.8516 7.14907C12.6035 7.20771 12.3423 7.13231 12.1661 6.95118L9.7979 4.51295C9.71548 4.42793 9.68539 4.30632 9.71894 4.1937C9.75248 4.08108 9.84458 3.99448 9.96071 3.96637L11.1913 3.66772C10.2118 2.24034 8.574 1.31707 6.74286 1.31707C3.76401 1.31707 1.34273 3.74609 1.34273 6.75C1.34273 9.75391 3.76401 12.1829 6.74286 12.1829C7.93929 12.1835 9.10057 11.7861 10.0369 11.0555C10.2248 10.9061 10.4801 10.8673 10.7052 10.954C10.9303 11.0407 11.0905 11.2395 11.1245 11.4744C11.1585 11.7093 11.0611 11.944 10.8694 12.0888C9.69614 13.0031 8.24167 13.5006 6.74319 13.5C3.01544 13.5 0 10.4747 0 6.75C0 3.02532 3.01544 0 6.74286 0Z" fill="#FF52C4"/>
</svg>
