<svg width="68" height="68" viewBox="0 0 68 68" fill="none" xmlns="http://www.w3.org/2000/svg">
<circle cx="34" cy="34" r="34" fill="#222C3C"/>
<path fill-rule="evenodd" clip-rule="evenodd" d="M14 26.7857C14 25.2512 14.6163 23.7796 15.7134 22.6946C16.8105 21.6096 18.2985 21 19.85 21H47.15C48.7015 21 50.1895 21.6096 51.2866 22.6946C52.3837 23.7796 53 25.2512 53 26.7857V42.2143C53 43.7488 52.3837 45.2204 51.2866 46.3054C50.1895 47.3904 48.7015 48 47.15 48H19.85C18.2985 48 16.8105 47.3904 15.7134 46.3054C14.6163 45.2204 14 43.7488 14 42.2143V26.7857Z" fill="url(#paint0_linear_66_6193)"/>
<path d="M26.7825 27.7825C28.5641 26.0009 30.9804 25 33.5 25C36.0196 25 38.4359 26.0009 40.2175 27.7825C41.9991 29.5641 43 31.9804 43 34.5C43 37.0196 41.9991 39.4359 40.2175 41.2175C38.4359 42.9991 36.0196 44 33.5 44C30.9804 44 28.5641 42.9991 26.7825 41.2175C25.0009 39.4359 24 37.0196 24 34.5C24 31.9804 25.0009 29.5641 26.7825 27.7825Z" fill="white"/>
<path d="M30.1412 31.1412C31.032 30.2504 32.2402 29.75 33.5 29.75C34.7598 29.75 35.968 30.2504 36.8588 31.1412C37.7496 32.032 38.25 33.2402 38.25 34.5C38.25 35.7598 37.7496 36.968 36.8588 37.8588C35.968 38.7496 34.7598 39.25 33.5 39.25C32.2402 39.25 31.032 38.7496 30.1412 37.8588C29.2504 36.968 28.75 35.7598 28.75 34.5C28.75 33.2402 29.2504 32.032 30.1412 31.1412Z" fill="url(#paint1_linear_66_6193)"/>
<defs>
<linearGradient id="paint0_linear_66_6193" x1="8.5" y1="18" x2="52" y2="48" gradientUnits="userSpaceOnUse">
<stop stop-color="#00F3AB"/>
<stop offset="1" stop-color="#80CAFF"/>
</linearGradient>
<linearGradient id="paint1_linear_66_6193" x1="33.5" y1="29.75" x2="33.5" y2="39.25" gradientUnits="userSpaceOnUse">
<stop stop-color="#5D64E2"/>
<stop offset="1" stop-color="#77B0F8"/>
</linearGradient>
</defs>
</svg>
