<svg width="68" height="68" viewBox="0 0 68 68" fill="none" xmlns="http://www.w3.org/2000/svg">
<g clip-path="url(#clip0_35_6)">
<path d="M67.5 34C67.5 52.5015 52.5015 67.5 34 67.5C15.4985 67.5 0.5 52.5015 0.5 34C0.5 15.4985 15.4985 0.5 34 0.5C52.5015 0.5 67.5 15.4985 67.5 34Z" fill="#1A1B1F" stroke="#755DDB"/>
<path fill-rule="evenodd" clip-rule="evenodd" d="M15 26.7857C15 25.2512 15.6163 23.7796 16.7134 22.6946C17.8105 21.6096 19.2985 21 20.85 21H48.15C49.7015 21 51.1895 21.6096 52.2866 22.6946C53.3837 23.7796 54 25.2512 54 26.7857V42.2143C54 43.7488 53.3837 45.2204 52.2866 46.3054C51.1895 47.3904 49.7015 48 48.15 48H20.85C19.2985 48 17.8105 47.3904 16.7134 46.3054C15.6163 45.2204 15 43.7488 15 42.2143V26.7857Z" fill="url(#paint0_linear_35_6)"/>
<path d="M27.7825 27.7825C29.5641 26.0009 31.9804 25 34.5 25C37.0196 25 39.4359 26.0009 41.2175 27.7825C42.9991 29.5641 44 31.9804 44 34.5C44 37.0196 42.9991 39.4359 41.2175 41.2175C39.4359 42.9991 37.0196 44 34.5 44C31.9804 44 29.5641 42.9991 27.7825 41.2175C26.0009 39.4359 25 37.0196 25 34.5C25 31.9804 26.0009 29.5641 27.7825 27.7825Z" fill="white"/>
<path d="M31.1412 31.1412C32.032 30.2504 33.2402 29.75 34.5 29.75C35.7598 29.75 36.968 30.2504 37.8588 31.1412C38.7496 32.032 39.25 33.2402 39.25 34.5C39.25 35.7598 38.7496 36.968 37.8588 37.8588C36.968 38.7496 35.7598 39.25 34.5 39.25C33.2402 39.25 32.032 38.7496 31.1412 37.8588C30.2504 36.968 29.75 35.7598 29.75 34.5C29.75 33.2402 30.2504 32.032 31.1412 31.1412Z" fill="url(#paint1_linear_35_6)"/>
</g>
<defs>
<linearGradient id="paint0_linear_35_6" x1="9.5" y1="18" x2="53" y2="48" gradientUnits="userSpaceOnUse">
<stop stop-color="#6E63D0"/>
<stop offset="1" stop-color="#392C7E"/>
</linearGradient>
<linearGradient id="paint1_linear_35_6" x1="34.5" y1="29.75" x2="34.5" y2="39.25" gradientUnits="userSpaceOnUse">
<stop stop-color="#7555D3"/>
<stop offset="1" stop-color="#9777F8"/>
</linearGradient>
<clipPath id="clip0_35_6">
<rect width="68" height="68" fill="white"/>
</clipPath>
</defs>
</svg>
