<svg width="50" height="61" viewBox="0 0 50 61" fill="none" xmlns="http://www.w3.org/2000/svg">
<path fill-rule="evenodd" clip-rule="evenodd" d="M32.9196 1.7873C31.7712 0.643249 30.2136 0.000345488 28.5893 0H6.625C3.24226 0 0.5 2.73106 0.5 6.1V54.9C0.5 58.2689 3.24226 61 6.625 61H43.375C46.7577 61 49.5 58.2689 49.5 54.9V20.8254C49.4997 19.2077 48.8541 17.6564 47.7054 16.5127L32.9196 1.7873ZM34.0082 21.1309H46.2869V54.754C46.2869 56.4421 44.9126 57.8106 43.2173 57.8106H6.3812C4.68586 57.8106 3.31152 56.4421 3.31152 54.754V5.84766C3.31152 4.15952 4.68586 2.79102 6.3812 2.79102H27.8689V15.0176C27.8689 18.3939 30.6176 21.1309 34.0082 21.1309Z" fill="#6C86AD"/>
<path fill-rule="evenodd" clip-rule="evenodd" d="M45.0808 18.34L31.0234 4.38574V15.2972C31.0234 16.9777 32.3958 18.34 34.0887 18.34H45.0808Z" fill="#6C86AD"/>
<path fill-rule="evenodd" clip-rule="evenodd" d="M23.6843 24.3576L16.1712 32.1028C15.9781 32.3018 15.9781 32.626 16.1712 32.8251L16.1783 32.8324C16.7707 33.4431 17.73 33.4431 18.3224 32.8324L23.402 27.5961V41.929C23.402 42.3708 23.7602 42.729 24.202 42.729H24.5955C25.0373 42.729 25.3955 42.3708 25.3955 41.929V27.5966L30.4747 32.8324C31.0671 33.4431 32.0274 33.4431 32.6198 32.8324L32.6259 32.8251C32.82 32.626 32.82 32.3018 32.6259 32.1028L25.1138 24.3576C24.7185 23.9511 24.0786 23.9511 23.6843 24.3576Z" fill="#6C86AD"/>
<path d="M16.1712 32.1028L15.7405 31.685L15.7405 31.685L16.1712 32.1028ZM23.6843 24.3576L24.115 24.7753L24.115 24.7754L23.6843 24.3576ZM16.1712 32.8251L15.7405 33.2428L15.7405 33.2428L16.1712 32.8251ZM16.1783 32.8324L16.609 32.4146L16.609 32.4146L16.1783 32.8324ZM18.3224 32.8324L17.8917 32.4146L17.8918 32.4146L18.3224 32.8324ZM23.402 27.5961L22.9714 27.1783L24.002 26.1159V27.5961H23.402ZM25.3955 27.5966H24.7955V26.1163L25.8262 27.1788L25.3955 27.5966ZM30.4747 32.8324L30.9053 32.4146L30.9054 32.4146L30.4747 32.8324ZM32.6198 32.8324L33.0812 33.2159L33.0665 33.2336L33.0505 33.2501L32.6198 32.8324ZM32.6259 32.8251L32.1645 32.4415L32.1797 32.4232L32.1963 32.4062L32.6259 32.8251ZM32.6259 32.1028L32.1963 32.5216L32.1952 32.5205L32.6259 32.1028ZM25.1138 24.3576L25.5439 23.9393L25.5445 23.9399L25.1138 24.3576ZM15.7405 31.685L23.2537 23.9398L24.115 24.7754L16.6019 32.5205L15.7405 31.685ZM15.7405 33.2428C15.3217 32.811 15.3217 32.1168 15.7405 31.685L16.6019 32.5205C16.6205 32.5013 16.6264 32.4794 16.6264 32.4639C16.6264 32.4484 16.6205 32.4265 16.6019 32.4073L15.7405 33.2428ZM15.7476 33.2501L15.7405 33.2428L16.6019 32.4073L16.609 32.4146L15.7476 33.2501ZM18.7531 33.2501C17.925 34.1039 16.5757 34.1039 15.7476 33.2501L16.609 32.4146C16.9657 32.7824 17.535 32.7824 17.8917 32.4146L18.7531 33.2501ZM23.8327 28.0139L18.7531 33.2501L17.8918 32.4146L22.9714 27.1783L23.8327 28.0139ZM24.002 27.5961V41.929H22.802V27.5961H24.002ZM24.002 41.929C24.002 42.0395 24.0916 42.129 24.202 42.129V43.329C23.4288 43.329 22.802 42.7022 22.802 41.929H24.002ZM24.202 42.129H24.5955V43.329H24.202V42.129ZM24.5955 42.129C24.706 42.129 24.7955 42.0395 24.7955 41.929H25.9955C25.9955 42.7022 25.3687 43.329 24.5955 43.329V42.129ZM24.7955 41.929V27.5966H25.9955V41.929H24.7955ZM30.044 33.2501L24.9649 28.0143L25.8262 27.1788L30.9053 32.4146L30.044 33.2501ZM33.0505 33.2501C32.2224 34.1039 30.8721 34.1039 30.044 33.2501L30.9054 32.4146C31.2621 32.7824 31.8325 32.7824 32.1892 32.4146L33.0505 33.2501ZM33.0873 33.2086L33.0812 33.2159L32.1585 32.4488L32.1645 32.4415L33.0873 33.2086ZM33.0555 31.6839C33.4768 32.116 33.4768 32.8118 33.0555 33.2439L32.1963 32.4062C32.1778 32.4252 32.1715 32.4475 32.1715 32.4639C32.1715 32.4804 32.1778 32.5027 32.1963 32.5216L33.0555 31.6839ZM25.5445 23.9399L33.0566 31.685L32.1952 32.5205L24.6831 24.7753L25.5445 23.9399ZM23.2536 23.9399C23.8839 23.29 24.9134 23.2909 25.5439 23.9393L24.6836 24.7759C24.5236 24.6114 24.2733 24.6122 24.115 24.7753L23.2536 23.9399Z" fill="#6C86AD"/>
</svg>
